<?xml version="1.0" encoding="utf-8"?>
<!-- Generator: Adobe Illustrator 19.0.0, SVG Export Plug-In . SVG Version: 6.00 Build 0)  -->
<svg version="1.1" id="Layer_1" xmlns="http://www.w3.org/2000/svg" xmlns:xlink="http://www.w3.org/1999/xlink" x="0px" y="0px"
	 width="18px" height="11px" viewBox="-296 391 18 11" style="enable-background:new -296 391 18 11;" xml:space="preserve">
<path style="fill:#212121;" d="M-278,398.4h-5.8c0,2,2,1.9,2,1.9c1.9,0,1.8-1.2,1.8-1.2h2c0,3.1-3.8,2.9-3.8,2.9
	c-4.6,0-4.3-4.1-4.3-4.1s0-4.1,4.3-4.1C-277.4,393.7-278,398.4-278,398.4z M-281.9,395.3c-1.7,0-2,1.7-2,1.7h3.7
	C-280.2,397-280.1,395.3-281.9,395.3z M-284.3,391.6h4.6v1.3h-4.6V391.6z M-286.6,398.6c0,3.3-3.5,3.2-3.5,3.2h-5.8V391h5.8
	c1.8,0,3.2,0.9,3.2,2.9c0,1.9-1.7,2.1-1.7,2.1C-286.5,395.9-286.6,398.6-286.6,398.6z M-290.2,392.9h-3.2v2.4h3c0.5,0,1-0.2,1-1.3
	S-290.2,392.9-290.2,392.9z M-290.2,397h-3.2v2.9h3.1c0.5,0,1.3-0.2,1.3-1.4C-289,397-290.2,397-290.2,397z"/>
</svg>
