<?xml version="1.0" encoding="utf-8"?>
<!-- Generator: Adobe Illustrator 19.0.0, SVG Export Plug-In . SVG Version: 6.00 Build 0)  -->
<svg version="1.1" id="Layer_1" xmlns="http://www.w3.org/2000/svg" xmlns:xlink="http://www.w3.org/1999/xlink" x="0px" y="0px"
	 width="9px" height="18px" viewBox="-301 388 9 18" style="enable-background:new -301 388 9 18;" xml:space="preserve">
<path style="fill:#212121;" d="M-292.3,388l-2.2,0c-2.4,0-4,1.7-4,4.4v2h-2.2c-0.2,0-0.3,0.2-0.3,0.4v3c0,0.2,0.2,0.4,0.3,0.4h2.2
	v7.5c0,0.2,0.2,0.4,0.3,0.4h2.8c0.2,0,0.3-0.2,0.3-0.4v-7.5h2.5c0.2,0,0.3-0.2,0.3-0.4l0-3c0-0.1,0-0.2-0.1-0.3
	c-0.1-0.1-0.1-0.1-0.2-0.1h-2.5v-1.7c0-0.8,0.2-1.3,1.2-1.3h1.5c0.2,0,0.3-0.2,0.3-0.4v-2.7C-292,388.2-292.1,388-292.3,388
	L-292.3,388z"/>
</svg>
