<?xml version="1.0" encoding="utf-8"?>
<!-- Generator: Adobe Illustrator 19.0.0, SVG Export Plug-In . SVG Version: 6.00 Build 0)  -->
<svg version="1.1" id="Layer_1" xmlns="http://www.w3.org/2000/svg" xmlns:xlink="http://www.w3.org/1999/xlink" x="0px" y="0px"
	 width="7px" height="15px" viewBox="-302 389 7 15" style="enable-background:new -302 389 7 15;" xml:space="preserve">
<path style="fill:#212121;" d="M-295.3,389l-1.7,0c-1.9,0-3.1,1.4-3.1,3.7v1.7h-1.7c-0.1,0-0.3,0.1-0.3,0.3v2.5
	c0,0.2,0.1,0.3,0.3,0.3h1.7v6.2c0,0.2,0.1,0.3,0.3,0.3h2.2c0.1,0,0.3-0.1,0.3-0.3v-6.2h2c0.1,0,0.3-0.1,0.3-0.3l0-2.5
	c0-0.1,0-0.2-0.1-0.2c0-0.1-0.1-0.1-0.2-0.1h-2v-1.4c0-0.7,0.1-1,0.9-1l1.1,0c0.1,0,0.3-0.1,0.3-0.3v-2.3
	C-295,389.1-295.1,389-295.3,389L-295.3,389z"/>
</svg>
