<?xml version="1.0" encoding="utf-8"?>
<!-- Generator: Adobe Illustrator 19.0.0, SVG Export Plug-In . SVG Version: 6.00 Build 0)  -->
<svg version="1.1" id="Layer_1" xmlns="http://www.w3.org/2000/svg" xmlns:xlink="http://www.w3.org/1999/xlink" x="0px" y="0px"
	 width="15px" height="16px" viewBox="-298 389 15 16" style="enable-background:new -298 389 15 16;" xml:space="preserve">
<path style="fill:#212121;" d="M-283.1,397.5h-1.9v2c0,0,0,0.1-0.1,0.1h-0.8c0,0-0.1,0-0.1-0.1v-2h-1.9c0,0-0.1,0-0.1-0.1v-0.9
	c0,0,0-0.1,0.1-0.1h1.9v-2c0,0,0-0.1,0.1-0.1h0.8c0,0,0.1,0,0.1,0.1v2h1.9c0,0,0.1,0,0.1,0.1L-283.1,397.5
	C-283,397.5-283,397.5-283.1,397.5z M-289.2,389.8C-289.3,389.8-289.3,389.8-289.2,389.8l-1.3,0c0.5,0.4,1.4,1.2,1.4,2.8
	c0,1.6-0.9,2.3-1.7,3l0,0c-0.2,0.3-0.5,0.5-0.5,1c0,0.4,0.3,0.7,0.5,0.9l0.7,0.6c0.9,0.8,1.7,1.5,1.7,2.9c0,2-1.8,3.9-5.3,3.9
	c-3,0-4.3-1.5-4.3-3c0-0.4,0.1-1.7,1.5-2.5c1.2-0.8,2.9-0.9,3.8-1l0.1,0l0,0c-0.3-0.4-0.6-0.8-0.6-1.4c0-0.3,0.1-0.5,0.2-0.7l0-0.1
	c-0.2,0-0.4,0-0.6,0c-2.2,0-3.3-1.7-3.3-3.3c0-1,0.5-2.1,1.3-2.8c1-0.9,2.2-1.2,3.8-1.2h3.7c0,0,0.1,0,0.1,0.1c0,0,0,0.1,0,0.1
	L-289.2,389.8z M-294.5,399.4c-1.1,0.4-1.7,1.2-1.7,2.1c0,1.5,1.4,2.5,3.5,2.5c1.8,0,3-0.9,3-2.3c0-1.1-0.7-1.7-2.2-2.8
	c-0.2,0-0.3,0-0.5,0C-292.4,399.1-293.6,399.1-294.5,399.4z M-293.4,389.8c-0.5,0-1.1,0.3-1.4,0.7c-0.3,0.4-0.4,0.9-0.4,1.5
	c0,1.3,0.7,3.7,2.5,3.7c0.5,0,1-0.2,1.4-0.6c0.5-0.5,0.5-1.3,0.5-1.5C-290.9,392.1-291.8,389.8-293.4,389.8z"/>
</svg>
