<?xml version="1.0" encoding="utf-8"?>
<!-- Generator: Adobe Illustrator 19.0.0, SVG Export Plug-In . SVG Version: 6.00 Build 0)  -->
<svg version="1.1" id="Layer_1" xmlns="http://www.w3.org/2000/svg" xmlns:xlink="http://www.w3.org/1999/xlink" x="0px" y="0px"
	 width="13px" height="13px" viewBox="-299 390 13 13" style="enable-background:new -299 390 13 13;" xml:space="preserve">
<path style="fill:#DFB999;" d="M-287.5,390h-9.9c-0.9,0-1.6,0.8-1.6,1.6v9.9c0,0.8,0.7,1.5,1.6,1.5h9.9c0.9,0,1.5-0.6,1.5-1.5v-9.9
	C-286,390.8-286.7,390-287.5,390L-287.5,390z M-287.8,391.9c0.2,0,0.4,0.2,0.4,0.4v1.4c0,0.2-0.2,0.4-0.4,0.4h-1.4
	c-0.2,0-0.4-0.2-0.4-0.4v-1.4c0-0.2,0.2-0.4,0.4-0.4H-287.8z M-292.5,394.1c1.4,0,2.5,1.1,2.5,2.5c0,1.4-1.1,2.5-2.5,2.5
	s-2.5-1.1-2.5-2.5C-295,395.2-293.8,394.1-292.5,394.1L-292.5,394.1z M-287.4,401.2c0,0.2-0.2,0.4-0.4,0.4h-9.3
	c-0.2,0-0.5-0.2-0.5-0.4v-5.6h1.3c-0.1,0.5-0.1,0.7-0.1,1c0,2.2,1.8,3.9,3.9,3.9s3.9-1.8,3.9-3.9c0-0.4,0-0.6-0.1-1h1.3V401.2z"/>
</svg>
