<?xml version="1.0" encoding="utf-8"?>
<!-- Generator: Adobe Illustrator 19.0.0, SVG Export Plug-In . SVG Version: 6.00 Build 0)  -->
<svg version="1.1" id="Layer_1" xmlns="http://www.w3.org/2000/svg" xmlns:xlink="http://www.w3.org/1999/xlink" x="0px" y="0px"
	 width="228px" height="17px" viewBox="-191 388 228 17" style="enable-background:new -191 388 228 17;" xml:space="preserve">
<path style="fill:#C99376;" d="M36.5,404.5c-0.3,0.3-0.7,0.5-1.2,0.5c-0.5,0-0.9-0.2-1.2-0.5c-0.3-0.3-0.5-0.7-0.5-1.1
	c0-0.5,0.2-0.8,0.5-1.1c0.3-0.3,0.7-0.5,1.2-0.5c0.5,0,0.9,0.2,1.2,0.5c0.3,0.3,0.5,0.7,0.5,1.1C37,403.8,36.8,404.1,36.5,404.5z
	 M21.2,404.6h-7.7V404h2.5v-15h-2.5v-0.6h7.7c2.6,0,4.7,0.7,6.3,2.2c1.6,1.5,2.3,3.5,2.3,5.9c0,2.4-0.8,4.4-2.3,5.9
	C25.9,403.8,23.8,404.6,21.2,404.6z M26.2,395.3c0-1.5-0.2-2.7-0.5-3.6c-0.3-0.9-0.8-1.6-1.5-2c-0.4-0.3-0.9-0.5-1.5-0.6
	c-0.6-0.1-1.6-0.2-2.9-0.2h-0.6v15h0.6c1.3,0,2.3-0.1,2.9-0.2c0.6-0.1,1.1-0.3,1.5-0.6c0.7-0.5,1.1-1.1,1.4-2.1
	c0.3-0.9,0.5-2.1,0.5-3.6V395.3z M7.4,404.9H6.4l-10.4-15.5h-0.2V404h2.5v0.6h-5.6V404h2.5v-15h-2.5v-0.6h6.5l7.2,10.8h0.2V389H4.2
	v-0.6h5.6v0.6H7.4V404.9z M-19.4,404h2.5v-15h-2.5v-0.6h8.2v0.6h-2.5v15h2.5v0.6h-8.2V404z M-31.6,404h2.5v-14.8h-0.2l-4.9,15.4
	h-0.9l-4.9-15.4h-0.2V404h2.5v0.6h-5.6V404h2.5v-15h-2.5v-0.6h6.5l3.4,10.8h0.3l3.5-10.8h6.4v0.6h-2.5v15h2.5v0.6h-8.2V404z
	 M-58.2,389.9c-0.6-0.6-1.7-0.9-3.2-0.9h-3.1v6.9h0.3c1.2,0,2.1-0.2,2.6-0.6c0.5-0.4,0.8-1.2,0.9-2.4h0.6v6.5h-0.6
	c-0.1-1.2-0.4-2-0.9-2.4c-0.5-0.4-1.4-0.6-2.7-0.6h-0.2v7.6h2.7v0.6h-8.4V404h2.5v-15h-2.5v-0.6h13.8l0.2,4.9h-0.6
	C-57.1,391.6-57.5,390.5-58.2,389.9z M-82.5,405c-2.2,0-4.1-0.8-5.5-2.4c-1.5-1.6-2.2-3.6-2.2-6.1c0-2.4,0.7-4.5,2.2-6.1
	s3.3-2.4,5.5-2.4c2.2,0,4.1,0.8,5.5,2.4c1.5,1.6,2.2,3.6,2.2,6.1c0,2.4-0.7,4.5-2.2,6.1C-78.4,404.2-80.2,405-82.5,405z
	 M-78.4,394.5c0-2.1-0.3-3.6-1-4.5s-1.7-1.4-3.2-1.4c-1.5,0-2.5,0.5-3.2,1.4c-0.6,0.9-1,2.4-1,4.5v4c0,2.1,0.3,3.6,1,4.5
	c0.6,0.9,1.7,1.4,3.2,1.4c1.5,0,2.5-0.5,3.2-1.4c0.6-0.9,1-2.4,1-4.5V394.5z M-110.4,404c1.6,0,2.8-0.4,3.6-1.1
	c0.8-0.7,1.3-1.9,1.5-3.7h0.6l-0.2,5.4h-14.3V404h2.5v-15h-2.5v-0.6h13.8l0.2,4.4h-0.6c-0.4-1.5-0.9-2.5-1.5-3
	c-0.6-0.5-1.6-0.8-3-0.8h-3.2v6.9h0.3c1.3,0,2.1-0.2,2.6-0.6s0.8-1.2,0.9-2.4h0.6v6.5h-0.6c-0.1-1.2-0.4-2-0.9-2.4
	c-0.5-0.4-1.4-0.6-2.8-0.6h-0.2v7.6H-110.4z M-125.5,389.9c-0.6-0.7-1.6-1-2.9-1c-0.2,0-0.4,0-0.5,0c-0.1,0-0.2,0-0.3,0l0,15.1h2.7
	v0.6h-8.7V404h2.7v-15.1h-0.8c-1.3,0-2.3,0.3-2.9,1c-0.6,0.6-1.1,1.9-1.4,3.7h-0.8l0.2-5.2h14.6l0.2,5.2h-0.8
	C-124.4,391.8-124.9,390.5-125.5,389.9z M-148.8,404h2.6l-1.5-4.3h-5.6l-1.5,4.3h2.6v0.6h-5.4V404h2l5.8-16h0.8l6,16h2.1v0.6h-7.9
	V404z M-150.4,392.5h-0.3l-2.4,6.6h5.1L-150.4,392.5z M-162.4,389.9c-0.6-0.7-1.6-1-2.9-1c-0.2,0-0.4,0-0.5,0s-0.2,0-0.3,0l0,15.1
	h2.7v0.6h-8.7V404h2.7v-15.1h-0.8c-1.3,0-2.3,0.3-2.9,1c-0.6,0.6-1.1,1.9-1.4,3.7h-0.8l0.2-5.2h14.6l0.2,5.2h-0.8
	C-161.3,391.8-161.8,390.5-162.4,389.9z M-186.7,393.9l1.8,0.5c1.5,0.4,2.6,1,3.3,1.8c0.7,0.8,1,1.9,1,3.3c0,1.6-0.5,3-1.4,4
	c-1,1-2.2,1.5-3.7,1.5c-0.7,0-1.3-0.1-1.9-0.3c-0.6-0.2-1.2-0.5-1.9-1l-1,1h-0.5v-4.8h0.7c0.3,1.4,0.9,2.5,1.6,3.3s1.7,1.1,2.8,1.1
	c1.2,0,2.1-0.3,2.8-1c0.7-0.6,1.1-1.5,1.1-2.5c0-0.7-0.2-1.3-0.7-1.8c-0.5-0.5-1.2-0.8-2.3-1.1l-1.6-0.4c-1.5-0.4-2.6-1-3.3-1.8
	c-0.7-0.8-1-1.8-1-3.1c0-1.4,0.4-2.5,1.2-3.3c0.8-0.8,1.9-1.2,3.3-1.2c0.7,0,1.4,0.1,1.9,0.3c0.6,0.2,1.1,0.5,1.6,0.9l1-1h0.4v4.6
	h-0.6c-0.3-1.4-0.9-2.4-1.6-3.1c-0.7-0.7-1.6-1-2.7-1c-1,0-1.8,0.3-2.4,0.8c-0.6,0.5-0.9,1.2-0.9,2c0,0.6,0.2,1.1,0.6,1.5
	C-188.6,393.2-187.9,393.6-186.7,393.9z"/>
</svg>
