<?xml version="1.0" encoding="utf-8"?>
<!-- Generator: Adobe Illustrator 19.0.0, SVG Export Plug-In . SVG Version: 6.00 Build 0)  -->
<svg version="1.1" id="Layer_1" xmlns="http://www.w3.org/2000/svg" xmlns:xlink="http://www.w3.org/1999/xlink" x="0px" y="0px"
	 width="10px" height="17px" viewBox="-300 388 10 17" style="enable-background:new -300 388 10 17;" xml:space="preserve">
<path style="fill:#212121;" d="M-290.3,398.3c-0.5,0.5-1.1,0.9-1.8,1.2c-0.7,0.3-1.4,0.4-2.1,0.5c0.1,0.1,0.2,0.2,0.2,0.2
	c1,1,1.9,2,2.9,3c0.3,0.3,0.4,0.8,0.2,1.1c-0.2,0.4-0.6,0.7-1.1,0.7c-0.3,0-0.5-0.2-0.7-0.4c-0.7-0.7-1.5-1.5-2.2-2.2
	c-0.2-0.2-0.3-0.2-0.5,0c-0.7,0.8-1.5,1.5-2.2,2.3c-0.3,0.3-0.7,0.4-1.1,0.2c-0.4-0.2-0.7-0.6-0.7-1.1c0-0.3,0.2-0.5,0.4-0.7
	c0.9-1,1.9-1.9,2.8-2.9c0.1-0.1,0.1-0.1,0.2-0.2c-1.3-0.1-2.5-0.5-3.5-1.3c-0.1-0.1-0.3-0.2-0.4-0.3c-0.4-0.4-0.5-0.9-0.1-1.4
	c0.3-0.4,0.8-0.5,1.3-0.3c0.1,0,0.2,0.1,0.3,0.2c1.9,1.3,4.4,1.3,6.3,0.1c0.2-0.1,0.4-0.3,0.6-0.3c0.4-0.1,0.9,0.1,1.1,0.4
	C-289.9,397.5-289.9,397.9-290.3,398.3z M-295,396.6c-2.3,0-4.2-2-4.2-4.3c0-2.4,1.9-4.3,4.2-4.3c2.3,0,4.2,2,4.2,4.4
	C-290.8,394.7-292.7,396.6-295,396.6z M-295,390.2c-1.2,0-2.1,0.9-2.1,2.1c0,1.2,0.9,2.1,2.1,2.1c1.1,0,2.1-0.9,2-2.1
	C-292.9,391.1-293.9,390.2-295,390.2z"/>
</svg>
