<?xml version="1.0" encoding="utf-8"?>
<!-- Generator: Adobe Illustrator 19.0.0, SVG Export Plug-In . SVG Version: 6.00 Build 0)  -->
<svg version="1.1" id="Layer_1" xmlns="http://www.w3.org/2000/svg" xmlns:xlink="http://www.w3.org/1999/xlink" x="0px" y="0px"
	 width="14px" height="11px" viewBox="-298 391 14 11" style="enable-background:new -298 391 14 11;" xml:space="preserve">
<path style="fill:#212121;" d="M-285.4,393.7c0,0.1,0,0.2,0,0.4c0,3.7-2.9,7.9-8.2,7.9c-1.6,0-3.1-0.5-4.4-1.2c0.2,0,0.5,0,0.7,0
	c1.3,0,2.6-0.4,3.6-1.2c-1.3,0-2.3-0.8-2.7-1.9c0.2,0,0.4,0.1,0.5,0.1c0.3,0,0.5,0,0.8-0.1c-1.3-0.3-2.3-1.4-2.3-2.7c0,0,0,0,0,0
	c0.4,0.2,0.8,0.3,1.3,0.3c-0.8-0.5-1.3-1.3-1.3-2.3c0-0.5,0.1-1,0.4-1.4c1.4,1.7,3.5,2.8,5.9,2.9c0-0.2-0.1-0.4-0.1-0.6
	c0-1.5,1.3-2.8,2.9-2.8c0.8,0,1.6,0.3,2.1,0.9c0.7-0.1,1.3-0.4,1.8-0.7c-0.2,0.7-0.7,1.2-1.3,1.5c0.6-0.1,1.1-0.2,1.7-0.4
	C-284.4,392.9-284.9,393.3-285.4,393.7L-285.4,393.7z"/>
</svg>
