<?xml version="1.0" encoding="utf-8"?>
<!-- Generator: Adobe Illustrator 19.0.0, SVG Export Plug-In . SVG Version: 6.00 Build 0)  -->
<svg version="1.1" id="Layer_1" xmlns="http://www.w3.org/2000/svg" xmlns:xlink="http://www.w3.org/1999/xlink" x="0px" y="0px"
	 width="13px" height="12px" viewBox="-299 391 13 12" style="enable-background:new -299 391 13 12;" xml:space="preserve">
<path style="fill:#E1BB9A;" d="M-287.9,391c-1.8-0.1-3,1-3.7,3.2c0.3-0.1,0.6-0.2,1-0.2c0.7,0,0.9,0.4,0.9,1.2
	c0,0.5-0.3,1.2-0.9,2.1c-0.5,0.9-1,1.4-1.2,1.4c-0.4,0-0.7-0.7-1-2.1c-0.1-0.4-0.3-1.5-0.5-3.2c-0.2-1.6-0.9-2.3-1.9-2.2
	c-0.4,0-1.1,0.5-1.9,1.2c-0.6,0.6-1.3,1.2-1.9,1.8l0.6,0.8c0.6-0.4,0.9-0.7,1-0.7c0.4,0,0.9,0.7,1.3,2.2c0.3,1.4,0.7,2.7,1.1,4.1
	c0.5,1.5,1.2,2.2,1.9,2.2c1.2,0,2.7-1.2,4.5-3.7c1.7-2.3,2.6-4.2,2.6-5.5C-285.9,392-286.6,391-287.9,391L-287.9,391z"/>
</svg>
