<?xml version="1.0" encoding="utf-8"?>
<!-- Generator: Adobe Illustrator 19.0.0, SVG Export Plug-In . SVG Version: 6.00 Build 0)  -->
<svg version="1.1" id="Layer_1" xmlns="http://www.w3.org/2000/svg" xmlns:xlink="http://www.w3.org/1999/xlink" x="0px" y="0px"
	 width="19px" height="11px" viewBox="-296 391 19 11" style="enable-background:new -296 391 19 11;" xml:space="preserve">
<path style="fill:#212121;" d="M-277.1,400.9c0-0.1,0-0.1-0.1-0.1c-0.3-0.6-1-1.3-1.9-2.2l0,0l0,0l0,0h0c-0.4-0.4-0.7-0.7-0.8-0.8
	c-0.2-0.3-0.2-0.5-0.1-0.8c0.1-0.2,0.4-0.6,0.9-1.3c0.3-0.4,0.5-0.6,0.6-0.9c1.1-1.5,1.6-2.5,1.5-3l-0.1-0.1c0-0.1-0.1-0.1-0.3-0.2
	c-0.2,0-0.4-0.1-0.6,0l-2.8,0c0,0-0.1,0-0.2,0c-0.1,0-0.1,0-0.1,0l0,0l0,0c0,0-0.1,0.1-0.1,0.1c0,0-0.1,0.1-0.1,0.2
	c-0.3,0.8-0.7,1.6-1.1,2.3c-0.2,0.4-0.5,0.8-0.7,1.1c-0.2,0.3-0.4,0.5-0.5,0.7c-0.1,0.1-0.3,0.3-0.4,0.3s-0.2,0.1-0.3,0.1
	c-0.1,0-0.1,0-0.2,0c-0.1-0.1-0.2-0.1-0.2-0.2c-0.1-0.1-0.1-0.2-0.1-0.4c0-0.2,0-0.3,0-0.4c0-0.1,0-0.3,0-0.5c0-0.2,0-0.3,0-0.4
	c0-0.3,0-0.5,0-0.8c0-0.3,0-0.5,0-0.7s0-0.4,0-0.6s0-0.3,0-0.5c0-0.1-0.1-0.2-0.1-0.3c0-0.1-0.1-0.2-0.2-0.2
	c-0.1-0.1-0.2-0.1-0.3-0.1c-0.4-0.1-0.8-0.1-1.3-0.1c-1.2,0-2,0.1-2.4,0.2c-0.1,0.1-0.3,0.2-0.4,0.3c-0.1,0.1-0.1,0.2,0,0.2
	c0.4,0.1,0.7,0.2,0.8,0.4l0.1,0.1c0,0.1,0.1,0.2,0.1,0.5c0,0.2,0.1,0.5,0.1,0.7c0,0.5,0,0.9,0,1.3c0,0.3-0.1,0.6-0.1,0.8
	c0,0.2-0.1,0.4-0.1,0.5c-0.1,0.1-0.1,0.2-0.1,0.2c0,0,0,0,0,0c-0.1,0-0.2,0.1-0.3,0.1c-0.1,0-0.2,0-0.3-0.1
	c-0.1-0.1-0.3-0.2-0.4-0.4c-0.1-0.2-0.3-0.4-0.5-0.7c-0.2-0.3-0.4-0.6-0.6-1l-0.2-0.3c-0.1-0.2-0.2-0.5-0.4-0.8
	c-0.2-0.4-0.3-0.7-0.5-1c-0.1-0.1-0.1-0.2-0.2-0.3l0,0c0,0-0.1-0.1-0.2-0.1c-0.1,0-0.1-0.1-0.2-0.1l-2.7,0c-0.3,0-0.5,0.1-0.6,0.2
	l0,0.1c0,0,0,0.1,0,0.2c0,0.1,0,0.2,0.1,0.3c0.4,0.9,0.8,1.9,1.3,2.7c0.5,0.9,0.9,1.6,1.2,2.1c0.3,0.5,0.7,1,1,1.5
	c0.4,0.5,0.6,0.8,0.7,0.9c0.1,0.1,0.2,0.2,0.3,0.3l0.2,0.2c0.2,0.2,0.4,0.4,0.7,0.6c0.3,0.2,0.6,0.4,1,0.7c0.4,0.2,0.8,0.4,1.3,0.5
	c0.5,0.1,1,0.2,1.4,0.2h1.1c0.2,0,0.4-0.1,0.5-0.2l0-0.1c0,0,0.1-0.1,0.1-0.2c0-0.1,0-0.2,0-0.3c0-0.3,0-0.5,0.1-0.8
	c0-0.2,0.1-0.4,0.2-0.5c0.1-0.1,0.1-0.2,0.2-0.3c0.1-0.1,0.1-0.1,0.2-0.1c0,0,0.1,0,0.1,0c0.2-0.1,0.3,0,0.6,0.2
	c0.2,0.2,0.4,0.4,0.6,0.6c0.2,0.2,0.4,0.5,0.7,0.8c0.3,0.3,0.5,0.5,0.7,0.6l0.2,0.1c0.1,0.1,0.3,0.2,0.5,0.2c0.2,0.1,0.4,0.1,0.6,0
	l2.5,0c0.2,0,0.4,0,0.6-0.1c0.1-0.1,0.2-0.2,0.2-0.3c0-0.1,0-0.2,0-0.3C-277.1,401.1-277.1,401-277.1,400.9L-277.1,400.9z"/>
</svg>
