<?xml version="1.0" encoding="utf-8"?>
<!-- Generator: Adobe Illustrator 19.0.0, SVG Export Plug-In . SVG Version: 6.00 Build 0)  -->
<svg version="1.1" id="Layer_1" xmlns="http://www.w3.org/2000/svg" xmlns:xlink="http://www.w3.org/1999/xlink" x="0px" y="0px"
	 width="17px" height="10px" viewBox="-297 392 17 10" style="enable-background:new -297 392 17 10;" xml:space="preserve">
<path style="fill:#212121;" d="M-280.1,401c0,0,0-0.1-0.1-0.1c-0.3-0.5-0.9-1.2-1.7-2l0,0l0,0l0,0h0c-0.4-0.4-0.6-0.6-0.7-0.8
	c-0.2-0.2-0.2-0.5-0.1-0.7c0.1-0.2,0.3-0.6,0.8-1.2c0.2-0.3,0.4-0.6,0.6-0.8c1-1.4,1.5-2.3,1.3-2.7l-0.1-0.1c0-0.1-0.1-0.1-0.3-0.2
	c-0.1,0-0.3-0.1-0.6,0l-2.5,0c0,0-0.1,0-0.2,0c-0.1,0-0.1,0-0.1,0l0,0l0,0c0,0-0.1,0-0.1,0.1c0,0-0.1,0.1-0.1,0.2
	c-0.3,0.7-0.6,1.4-0.9,2.1c-0.2,0.4-0.4,0.7-0.6,1c-0.2,0.3-0.3,0.5-0.5,0.6c-0.1,0.1-0.2,0.2-0.3,0.3c-0.1,0.1-0.2,0.1-0.2,0.1
	c-0.1,0-0.1,0-0.2,0c-0.1-0.1-0.1-0.1-0.2-0.2c0-0.1-0.1-0.2-0.1-0.4c0-0.1,0-0.3,0-0.4c0-0.1,0-0.2,0-0.4c0-0.2,0-0.3,0-0.4
	c0-0.2,0-0.5,0-0.8c0-0.3,0-0.5,0-0.6c0-0.2,0-0.3,0-0.5s0-0.3,0-0.4c0-0.1-0.1-0.2-0.1-0.3c0-0.1-0.1-0.2-0.2-0.2
	c-0.1-0.1-0.2-0.1-0.3-0.1c-0.3-0.1-0.7-0.1-1.2-0.1c-1.1,0-1.8,0.1-2.1,0.2c-0.1,0.1-0.2,0.2-0.3,0.3c-0.1,0.1-0.1,0.2,0,0.2
	c0.4,0.1,0.6,0.2,0.8,0.4l0.1,0.1c0,0.1,0.1,0.2,0.1,0.4c0,0.2,0.1,0.4,0.1,0.7c0,0.4,0,0.8,0,1.1c0,0.3-0.1,0.6-0.1,0.7
	c0,0.2-0.1,0.3-0.1,0.4c-0.1,0.1-0.1,0.2-0.1,0.2c0,0,0,0,0,0c-0.1,0-0.2,0-0.2,0c-0.1,0-0.2,0-0.3-0.1c-0.1-0.1-0.2-0.2-0.4-0.4
	c-0.1-0.1-0.3-0.4-0.4-0.6c-0.2-0.3-0.3-0.6-0.5-1l-0.1-0.3c-0.1-0.2-0.2-0.4-0.4-0.7c-0.2-0.3-0.3-0.6-0.4-0.9
	c0-0.1-0.1-0.2-0.2-0.3l0,0c0,0-0.1-0.1-0.1-0.1c-0.1,0-0.1,0-0.2-0.1l-2.4,0c-0.2,0-0.4,0.1-0.5,0.2l0,0.1c0,0,0,0.1,0,0.1
	c0,0.1,0,0.1,0.1,0.2c0.4,0.9,0.7,1.7,1.2,2.5c0.4,0.8,0.8,1.4,1.1,1.9c0.3,0.5,0.6,0.9,0.9,1.4c0.3,0.4,0.5,0.7,0.6,0.8
	c0.1,0.1,0.2,0.2,0.2,0.3l0.2,0.2c0.1,0.1,0.3,0.3,0.6,0.5c0.3,0.2,0.6,0.4,0.9,0.6c0.3,0.2,0.7,0.4,1.2,0.5
	c0.4,0.1,0.9,0.2,1.3,0.2h1c0.2,0,0.4-0.1,0.5-0.2l0,0c0,0,0-0.1,0.1-0.2c0-0.1,0-0.2,0-0.3c0-0.3,0-0.5,0.1-0.7
	c0-0.2,0.1-0.4,0.1-0.5c0.1-0.1,0.1-0.2,0.2-0.3c0.1-0.1,0.1-0.1,0.1-0.1c0,0,0.1,0,0.1,0c0.1,0,0.3,0,0.5,0.1
	c0.2,0.1,0.4,0.3,0.5,0.5c0.2,0.2,0.4,0.4,0.6,0.7c0.2,0.3,0.4,0.5,0.6,0.6l0.2,0.1c0.1,0.1,0.3,0.1,0.5,0.2c0.2,0.1,0.4,0.1,0.5,0
	l2.3,0c0.2,0,0.4,0,0.5-0.1c0.1-0.1,0.2-0.2,0.2-0.3c0-0.1,0-0.2,0-0.3S-280.1,401.1-280.1,401L-280.1,401z"/>
</svg>
