<svg xmlns="http://www.w3.org/2000/svg" preserveAspectRatio="xMidYMid" width="306" height="23" viewBox="0 0 306 23"><defs><style>.cls-1{fill:#c99376;fill-rule:evenodd}</style></defs><path d="M305.337 22.261a2.194 2.194 0 0 1-1.577.643c-.631 0-1.162-.212-1.594-.635a2.077 2.077 0 0 1-.647-1.537c0-.611.216-1.128.647-1.552.432-.424.963-.636 1.594-.636.62 0 1.148.215 1.586.644.436.429.655.944.655 1.544 0 .591-.222 1.1-.664 1.529zm-20.597.176h-10.308v-.82h3.303V1.314h-3.303V.461h10.308c3.508 0 6.305 1.009 8.391 3.025 2.086 2.016 3.129 4.676 3.129 7.979 0 3.304-1.04 5.959-3.121 7.964-2.081 2.006-4.88 3.008-8.399 3.008zm6.789-12.516c0-1.984-.208-3.59-.622-4.818-.416-1.228-1.065-2.148-1.951-2.76-.531-.374-1.212-.64-2.042-.796-.83-.155-2.135-.233-3.917-.233h-.813v20.303h.813c1.782 0 3.087-.078 3.917-.233.83-.155 1.511-.421 2.042-.797.874-.621 1.521-1.552 1.942-2.791.421-1.238.631-2.844.631-4.818V9.921zm-25.31 12.887h-1.262l-13.91-20.963h-.299v19.772h3.303v.82h-7.552v-.82h3.303V1.314h-3.303V.461h8.698l9.727 14.656h.332V1.314h-3.287V.461h7.536v.853h-3.286v21.494zm-35.902-1.191h3.32V1.314h-3.32V.461h11.006v.853h-3.304v20.303h3.304v.82h-11.006v-.82zm-16.364 0h3.337V1.619h-.233l-6.64 20.818h-1.145l-6.54-20.785h-.332v19.965h3.303v.82h-7.553v-.82h3.304V1.314h-3.304V.461h8.698l4.532 14.656h.365L216.41.461h8.598v.853h-3.336v20.303h3.336v.82h-11.055v-.82zm-35.656-19.04c-.87-.842-2.294-1.263-4.275-1.263h-4.217v9.331h.415c1.671 0 2.833-.287 3.486-.86.653-.574 1.063-1.639 1.229-3.194h.78v8.832h-.78c-.156-1.587-.562-2.665-1.22-3.234-.659-.568-1.884-.852-3.677-.852h-.233v10.28h3.569v.82h-11.287v-.82h3.303V1.314h-3.303V.461h18.525l.249 6.596h-.781c-.321-2.144-.915-3.638-1.783-4.48zm-32.624 20.391c-2.988 0-5.467-1.088-7.437-3.266-1.97-2.176-2.955-4.911-2.955-8.204 0-3.303.988-6.047 2.964-8.229 1.975-2.182 4.45-3.275 7.428-3.275 2.977 0 5.45 1.09 7.42 3.266 1.969 2.178 2.954 4.923 2.954 8.238 0 3.303-.985 6.041-2.954 8.213-1.97 2.172-4.443 3.257-7.42 3.257zm5.511-14.205c0-2.832-.432-4.861-1.295-6.089-.863-1.229-2.28-1.843-4.249-1.843-1.959 0-3.373.614-4.241 1.843-.869 1.228-1.304 3.257-1.304 6.089V14.2c0 2.832.435 4.865 1.304 6.098.868 1.234 2.282 1.85 4.241 1.85 1.969 0 3.386-.616 4.249-1.85.863-1.233 1.295-3.266 1.295-6.098V8.763zm-43.069 12.854c2.18 0 3.779-.477 4.797-1.432 1.018-.954 1.71-2.622 2.075-5.003h.78l-.215 7.255H96.346v-.82h3.303V1.314h-3.303V.461h18.525l.249 5.937h-.78c-.543-1.984-1.226-3.328-2.05-4.03-.825-.702-2.161-1.054-4.009-1.054h-4.249v9.331h.415c1.681 0 2.855-.29 3.519-.869.664-.579 1.073-1.641 1.228-3.185h.797v8.832h-.797c-.155-1.587-.567-2.665-1.237-3.234-.669-.568-1.9-.852-3.693-.852h-.232v10.28h4.083zM87.934 2.529c-.842-.895-2.136-1.344-3.885-1.344-.298 0-.523.003-.672.009a8.483 8.483 0 0 0-.407.023l-.016 20.4h3.668v.82H74.903v-.82h3.635v-20.4h-1.062c-1.793 0-3.093.433-3.901 1.296-.808.863-1.444 2.517-1.909 4.962h-1.012l.298-6.982h19.621l.299 6.982h-1.013c-.443-2.401-1.085-4.051-1.925-4.946zM56.597 21.617h3.469l-2.075-5.808h-7.453l-2.042 5.808h3.503v.82h-7.238v-.82h2.723L55.302-.006h1.129l8.017 21.623h2.756v.82H56.597v-.82zM54.455 6.028h-.381l-3.187 8.928h6.789l-3.221-8.928zM38.407 2.529c-.841-.895-2.136-1.344-3.884-1.344-.299 0-.523.003-.672.009-.15.005-.285.013-.407.023l-.017 20.4h3.669v.82H25.377v-.82h3.635v-20.4H27.95c-1.793 0-3.094.433-3.901 1.296-.808.863-1.444 2.517-1.909 4.962h-1.013l.299-6.982h19.621l.298 6.982h-1.012c-.443-2.401-1.085-4.051-1.926-4.946zM5.776 7.942l2.424.66c2.025.536 3.499 1.36 4.423 2.47.924 1.11 1.387 2.603 1.387 4.48 0 2.21-.64 4.004-1.918 5.382-1.278 1.378-2.952 2.067-5.021 2.067a8.22 8.22 0 0 1-2.606-.403c-.808-.267-1.638-.696-2.49-1.287L.68 22.695H0v-6.548h.962c.465 1.942 1.201 3.409 2.208 4.401 1.007.991 2.263 1.487 3.768 1.487 1.549 0 2.808-.434 3.777-1.303.968-.869 1.452-2 1.452-3.394 0-1.008-.318-1.826-.954-2.453-.637-.628-1.663-1.129-3.08-1.505l-2.141-.595c-2.058-.558-3.555-1.362-4.49-2.414C.566 9.321.099 7.916.099 6.156c0-1.866.559-3.359 1.677-4.48C2.893.556 4.387-.006 6.258-.006c.984 0 1.853.127 2.606.379.752.252 1.471.657 2.158 1.214L12.349.236h.499V6.43h-.781c-.464-1.834-1.189-3.22-2.174-4.159C8.908 1.333 7.696.863 6.258.863c-1.306 0-2.374.352-3.204 1.054-.83.703-1.245 1.601-1.245 2.695 0 .848.271 1.512.813 1.995.542.482 1.594.928 3.154 1.335z" class="cls-1"/></svg>