<svg xmlns="http://www.w3.org/2000/svg" height="69" viewBox="0 0 232 69" width="232"><svg height="17" viewBox="-191 388 228 17" width="228" x="2" y="2"><path d="M36.5 404.5c-.3.3-.7.5-1.2.5s-.9-.2-1.2-.5c-.3-.3-.5-.7-.5-1.1 0-.5.2-.8.5-1.1.3-.3.7-.5 1.2-.5s.9.2 1.2.5c.3.3.5.7.5 1.1 0 .4-.2.7-.5 1.1zm-15.3.1h-7.7v-.6H16v-15h-2.5v-.6h7.7c2.6 0 4.7.7 6.3 2.2 1.6 1.5 2.3 3.5 2.3 5.9 0 2.4-.8 4.4-2.3 5.9-1.6 1.4-3.7 2.2-6.3 2.2zm5-9.3c0-1.5-.2-2.7-.5-3.6-.3-.9-.8-1.6-1.5-2-.4-.3-.9-.5-1.5-.6-.6-.1-1.6-.2-2.9-.2h-.6v15h.6c1.3 0 2.3-.1 2.9-.2.6-.1 1.1-.3 1.5-.6.7-.5 1.1-1.1 1.4-2.1.3-.9.5-2.1.5-3.6v-2.1zm-18.8 9.6h-1L-4 389.4h-.2V404h2.5v.6h-5.6v-.6h2.5v-15h-2.5v-.6h6.5l7.2 10.8h.2V389H4.2v-.6h5.6v.6H7.4v15.9zm-26.8-.9h2.5v-15h-2.5v-.6h8.2v.6h-2.5v15h2.5v.6h-8.2v-.6zm-12.2 0h2.5v-14.8h-.2l-4.9 15.4h-.9l-4.9-15.4h-.2V404h2.5v.6h-5.6v-.6h2.5v-15h-2.5v-.6h6.5l3.4 10.8h.3l3.5-10.8h6.4v.6h-2.5v15h2.5v.6h-8.2v-.6zm-26.6-14.1c-.6-.6-1.7-.9-3.2-.9h-3.1v6.9h.3c1.2 0 2.1-.2 2.6-.6.5-.4.8-1.2.9-2.4h.6v6.5h-.6c-.1-1.2-.4-2-.9-2.4-.5-.4-1.4-.6-2.7-.6h-.2v7.6h2.7v.6h-8.4v-.6h2.5v-15h-2.5v-.6h13.8l.2 4.9h-.6c-.3-1.7-.7-2.8-1.4-3.4zM-82.5 405c-2.2 0-4.1-.8-5.5-2.4-1.5-1.6-2.2-3.6-2.2-6.1 0-2.4.7-4.5 2.2-6.1s3.3-2.4 5.5-2.4 4.1.8 5.5 2.4c1.5 1.6 2.2 3.6 2.2 6.1 0 2.4-.7 4.5-2.2 6.1-1.4 1.6-3.2 2.4-5.5 2.4zm4.1-10.5c0-2.1-.3-3.6-1-4.5s-1.7-1.4-3.2-1.4c-1.5 0-2.5.5-3.2 1.4-.6.9-1 2.4-1 4.5v4c0 2.1.3 3.6 1 4.5.6.9 1.7 1.4 3.2 1.4 1.5 0 2.5-.5 3.2-1.4.6-.9 1-2.4 1-4.5v-4zm-32 9.5c1.6 0 2.8-.4 3.6-1.1.8-.7 1.3-1.9 1.5-3.7h.6l-.2 5.4h-14.3v-.6h2.5v-15h-2.5v-.6h13.8l.2 4.4h-.6c-.4-1.5-.9-2.5-1.5-3s-1.6-.8-3-.8h-3.2v6.9h.3c1.3 0 2.1-.2 2.6-.6s.8-1.2.9-2.4h.6v6.5h-.6c-.1-1.2-.4-2-.9-2.4-.5-.4-1.4-.6-2.8-.6h-.2v7.6h3.2zm-15.1-14.1c-.6-.7-1.6-1-2.9-1h-.8V404h2.7v.6h-8.7v-.6h2.7v-15.1h-.8c-1.3 0-2.3.3-2.9 1-.6.6-1.1 1.9-1.4 3.7h-.8l.2-5.2h14.6l.2 5.2h-.8c-.2-1.8-.7-3.1-1.3-3.7zm-23.3 14.1h2.6l-1.5-4.3h-5.6l-1.5 4.3h2.6v.6h-5.4v-.6h2l5.8-16h.8l6 16h2.1v.6h-7.9v-.6zm-1.6-11.5h-.3l-2.4 6.6h5.1l-2.4-6.6zm-12-2.6c-.6-.7-1.6-1-2.9-1h-.8V404h2.7v.6h-8.7v-.6h2.7v-15.1h-.8c-1.3 0-2.3.3-2.9 1-.6.6-1.1 1.9-1.4 3.7h-.8l.2-5.2h14.6l.2 5.2h-.8c-.2-1.8-.7-3.1-1.3-3.7zm-24.3 4l1.8.5c1.5.4 2.6 1 3.3 1.8.7.8 1 1.9 1 3.3 0 1.6-.5 3-1.4 4-1 1-2.2 1.5-3.7 1.5-.7 0-1.3-.1-1.9-.3-.6-.2-1.2-.5-1.9-1l-1 1h-.5v-4.8h.7c.3 1.4.9 2.5 1.6 3.3s1.7 1.1 2.8 1.1c1.2 0 2.1-.3 2.8-1 .7-.6 1.1-1.5 1.1-2.5 0-.7-.2-1.3-.7-1.8-.5-.5-1.2-.8-2.3-1.1l-1.6-.4c-1.5-.4-2.6-1-3.3-1.8-.7-.8-1-1.8-1-3.1 0-1.4.4-2.5 1.2-3.3.8-.8 1.9-1.2 3.3-1.2.7 0 1.4.1 1.9.3.6.2 1.1.5 1.6.9l1-1h.4v4.6h-.6c-.3-1.4-.9-2.4-1.6-3.1-.7-.7-1.6-1-2.7-1-1 0-1.8.3-2.4.8-.6.5-.9 1.2-.9 2 0 .6.2 1.1.6 1.5.5.1 1.2.5 2.4.8z" fill="#c99376"/></svg><svg height="11" viewBox="-296 391 19 11" width="19" x="2" y="21"><path d="M-277.1 400.9c0-.1 0-.1-.1-.1-.3-.6-1-1.3-1.9-2.2l-.8-.8c-.2-.3-.2-.5-.1-.8.1-.2.4-.6.9-1.3.3-.4.5-.6.6-.9 1.1-1.5 1.6-2.5 1.5-3l-.1-.1c0-.1-.1-.1-.3-.2-.2 0-.4-.1-.6 0h-2.8H-281.1l-.1.1s-.1.1-.1.2c-.3.8-.7 1.6-1.1 2.3-.2.4-.5.8-.7 1.1-.2.3-.4.5-.5.7-.1.1-.3.3-.4.3s-.2.1-.3.1h-.2c-.1-.1-.2-.1-.2-.2-.1-.1-.1-.2-.1-.4v-.4-.5-.4-.8-.7-.6-.5c0-.1-.1-.2-.1-.3 0-.1-.1-.2-.2-.2-.1-.1-.2-.1-.3-.1-.4-.1-.8-.1-1.3-.1-1.2 0-2 .1-2.4.2-.1.1-.3.2-.4.3-.1.1-.1.2 0 .2.4.1.7.2.8.4l.1.1c0 .1.1.2.1.5 0 .2.1.5.1.7v1.3c0 .3-.1.6-.1.8 0 .2-.1.4-.1.5-.1.1-.1.2-.1.2-.1 0-.2.1-.3.1-.1 0-.2 0-.3-.1-.1-.1-.3-.2-.4-.4-.1-.2-.3-.4-.5-.7-.2-.3-.4-.6-.6-1l-.2-.3c-.1-.2-.2-.5-.4-.8-.2-.4-.3-.7-.5-1-.1-.1-.1-.2-.2-.3 0 0-.1-.1-.2-.1s-.1-.1-.2-.1h-2.7c-.3 0-.5.1-.6.2V392.1c0 .1 0 .2.1.3.4.9.8 1.9 1.3 2.7.5.9.9 1.6 1.2 2.1.3.5.7 1 1 1.5.4.5.6.8.7.9l.3.3.2.2c.2.2.4.4.7.6.3.2.6.4 1 .7.4.2.8.4 1.3.5.5.1 1 .2 1.4.2h1.1c.2 0 .4-.1.5-.2v-.1s.1-.1.1-.2v-.3c0-.3 0-.5.1-.8 0-.2.1-.4.2-.5.1-.1.1-.2.2-.3.1-.1.1-.1.2-.1h.1c.2-.1.3 0 .6.2l.6.6c.2.2.4.5.7.8.3.3.5.5.7.6l.2.1c.1.1.3.2.5.2.2.1.4.1.6 0h2.5c.2 0 .4 0 .6-.1.1-.1.2-.2.2-.3v-.3c-.2-.3-.2-.4-.2-.5z" fill="#212121"/></svg><svg height="11" viewBox="-296 391 19 11" width="19" x="23" y="21"><path d="M-277.1 400.9c0-.1 0-.1-.1-.1-.3-.6-1-1.3-1.9-2.2l-.8-.8c-.2-.3-.2-.5-.1-.8.1-.2.4-.6.9-1.3.3-.4.5-.6.6-.9 1.1-1.5 1.6-2.5 1.5-3l-.1-.1c0-.1-.1-.1-.3-.2-.2 0-.4-.1-.6 0h-2.8H-281.1l-.1.1s-.1.1-.1.2c-.3.8-.7 1.6-1.1 2.3-.2.4-.5.8-.7 1.1-.2.3-.4.5-.5.7-.1.1-.3.3-.4.3s-.2.1-.3.1h-.2c-.1-.1-.2-.1-.2-.2-.1-.1-.1-.2-.1-.4v-.4-.5-.4-.8-.7-.6-.5c0-.1-.1-.2-.1-.3 0-.1-.1-.2-.2-.2-.1-.1-.2-.1-.3-.1-.4-.1-.8-.1-1.3-.1-1.2 0-2 .1-2.4.2-.1.1-.3.2-.4.3-.1.1-.1.2 0 .2.4.1.7.2.8.4l.1.1c0 .1.1.2.1.5 0 .2.1.5.1.7v1.3c0 .3-.1.6-.1.8 0 .2-.1.4-.1.5-.1.1-.1.2-.1.2-.1 0-.2.1-.3.1-.1 0-.2 0-.3-.1-.1-.1-.3-.2-.4-.4-.1-.2-.3-.4-.5-.7-.2-.3-.4-.6-.6-1l-.2-.3c-.1-.2-.2-.5-.4-.8-.2-.4-.3-.7-.5-1-.1-.1-.1-.2-.2-.3 0 0-.1-.1-.2-.1s-.1-.1-.2-.1h-2.7c-.3 0-.5.1-.6.2V392.1c0 .1 0 .2.1.3.4.9.8 1.9 1.3 2.7.5.9.9 1.6 1.2 2.1.3.5.7 1 1 1.5.4.5.6.8.7.9l.3.3.2.2c.2.2.4.4.7.6.3.2.6.4 1 .7.4.2.8.4 1.3.5.5.1 1 .2 1.4.2h1.1c.2 0 .4-.1.5-.2v-.1s.1-.1.1-.2v-.3c0-.3 0-.5.1-.8 0-.2.1-.4.2-.5.1-.1.1-.2.2-.3.1-.1.1-.1.2-.1h.1c.2-.1.3 0 .6.2l.6.6c.2.2.4.5.7.8.3.3.5.5.7.6l.2.1c.1.1.3.2.5.2.2.1.4.1.6 0h2.5c.2 0 .4 0 .6-.1.1-.1.2-.2.2-.3v-.3c-.2-.3-.2-.4-.2-.5z" fill="#e1bb9a"/></svg><svg height="11" viewBox="-296 391 18 11" width="18" x="44" y="21"><path d="M-278 398.4h-5.8c0 2 2 1.9 2 1.9 1.9 0 1.8-1.2 1.8-1.2h2c0 3.1-3.8 2.9-3.8 2.9-4.6 0-4.3-4.1-4.3-4.1s0-4.1 4.3-4.1c4.4-.1 3.8 4.6 3.8 4.6zm-3.9-3.1c-1.7 0-2 1.7-2 1.7h3.7s.1-1.7-1.7-1.7zm-2.4-3.7h4.6v1.3h-4.6v-1.3zm-2.3 7c0 3.3-3.5 3.2-3.5 3.2h-5.8V391h5.8c1.8 0 3.2.9 3.2 2.9 0 1.9-1.7 2.1-1.7 2.1 2.1-.1 2 2.6 2 2.6zm-3.6-5.7h-3.2v2.4h3c.5 0 1-.2 1-1.3s-.8-1.1-.8-1.1zm0 4.1h-3.2v2.9h3.1c.5 0 1.3-.2 1.3-1.4 0-1.5-1.2-1.5-1.2-1.5z" fill="#dfb999"/></svg><svg height="11" viewBox="-296 391 18 11" width="18" x="64" y="21"><path d="M-278 398.4h-5.8c0 2 2 1.9 2 1.9 1.9 0 1.8-1.2 1.8-1.2h2c0 3.1-3.8 2.9-3.8 2.9-4.6 0-4.3-4.1-4.3-4.1s0-4.1 4.3-4.1c4.4-.1 3.8 4.6 3.8 4.6zm-3.9-3.1c-1.7 0-2 1.7-2 1.7h3.7s.1-1.7-1.7-1.7zm-2.4-3.7h4.6v1.3h-4.6v-1.3zm-2.3 7c0 3.3-3.5 3.2-3.5 3.2h-5.8V391h5.8c1.8 0 3.2.9 3.2 2.9 0 1.9-1.7 2.1-1.7 2.1 2.1-.1 2 2.6 2 2.6zm-3.6-5.7h-3.2v2.4h3c.5 0 1-.2 1-1.3s-.8-1.1-.8-1.1zm0 4.1h-3.2v2.9h3.1c.5 0 1.3-.2 1.3-1.4 0-1.5-1.2-1.5-1.2-1.5z" fill="#212121"/></svg><svg height="18" viewBox="-301 388 9 18" width="9" x="2" y="34"><path d="M-292.3 388h-2.2c-2.4 0-4 1.7-4 4.4v2h-2.2c-.2 0-.3.2-.3.4v3c0 .2.2.4.3.4h2.2v7.5c0 .2.2.4.3.4h2.8c.2 0 .3-.2.3-.4v-7.5h2.5c.2 0 .3-.2.3-.4v-3c0-.1 0-.2-.1-.3-.1-.1-.1-.1-.2-.1h-2.5v-1.7c0-.8.2-1.3 1.2-1.3h1.5c.2 0 .3-.2.3-.4v-2.7c.1-.1 0-.3-.2-.3z" fill="#212121"/></svg><svg height="18" viewBox="-301 388 9 18" width="9" x="13" y="34"><path d="M-292.3 388h-2.2c-2.4 0-4 1.7-4 4.4v2h-2.2c-.2 0-.3.2-.3.4v3c0 .2.2.4.3.4h2.2v7.5c0 .2.2.4.3.4h2.8c.2 0 .3-.2.3-.4v-7.5h2.5c.2 0 .3-.2.3-.4v-3c0-.1 0-.2-.1-.3-.1-.1-.1-.1-.2-.1h-2.5v-1.7c0-.8.2-1.3 1.2-1.3h1.5c.2 0 .3-.2.3-.4v-2.7c.1-.1 0-.3-.2-.3z" fill="#dfb999"/></svg><svg height="17" viewBox="-300 388 10 17" width="10" x="24" y="34"><path d="M-290.3 398.3c-.5.5-1.1.9-1.8 1.2-.7.3-1.4.4-2.1.5l.2.2c1 1 1.9 2 2.9 3 .3.3.4.8.2 1.1-.2.4-.6.7-1.1.7-.3 0-.5-.2-.7-.4l-2.2-2.2c-.2-.2-.3-.2-.5 0-.7.8-1.5 1.5-2.2 2.3-.3.3-.7.4-1.1.2-.4-.2-.7-.6-.7-1.1 0-.3.2-.5.4-.7.9-1 1.9-1.9 2.8-2.9l.2-.2c-1.3-.1-2.5-.5-3.5-1.3-.1-.1-.3-.2-.4-.3-.4-.4-.5-.9-.1-1.4.3-.4.8-.5 1.3-.3.1 0 .2.1.3.2 1.9 1.3 4.4 1.3 6.3.1.2-.1.4-.3.6-.3.4-.1.9.1 1.1.4.5.4.5.8.1 1.2zm-4.7-1.7c-2.3 0-4.2-2-4.2-4.3 0-2.4 1.9-4.3 4.2-4.3 2.3 0 4.2 2 4.2 4.4 0 2.3-1.9 4.2-4.2 4.2zm0-6.4c-1.2 0-2.1.9-2.1 2.1 0 1.2.9 2.1 2.1 2.1 1.1 0 2.1-.9 2-2.1.1-1.2-.9-2.1-2-2.1z" fill="#212121"/></svg><svg height="10" viewBox="-297 392 17 10" width="17" x="84" y="21"><path d="M-280.1 401s0-.1-.1-.1c-.3-.5-.9-1.2-1.7-2-.4-.4-.6-.6-.7-.8-.2-.2-.2-.5-.1-.7.1-.2.3-.6.8-1.2.2-.3.4-.6.6-.8 1-1.4 1.5-2.3 1.3-2.7l-.1-.1c0-.1-.1-.1-.3-.2-.1 0-.3-.1-.6 0h-2.5H-283.8s-.1 0-.1.1c0 0-.1.1-.1.2l-.9 2.1c-.2.4-.4.7-.6 1-.2.3-.3.5-.5.6l-.3.3c-.1.1-.2.1-.2.1h-.2l-.2-.2c0-.1-.1-.2-.1-.4v-.4-.4-.4-.8-.6-.5-.4c0-.1-.1-.2-.1-.3 0-.1-.1-.2-.2-.2-.1-.1-.2-.1-.3-.1-.3-.1-.7-.1-1.2-.1-1.1 0-1.8.1-2.1.2l-.3.3c-.1.1-.1.2 0 .2.4.1.6.2.8.4l.1.1c0 .1.1.2.1.4s.1.4.1.7v1.1c0 .3-.1.6-.1.7 0 .2-.1.3-.1.4-.1.1-.1.2-.1.2h-.2c-.1 0-.2 0-.3-.1l-.4-.4c-.1-.1-.3-.4-.4-.6-.2-.3-.3-.6-.5-1l-.1-.3c-.1-.2-.2-.4-.4-.7-.2-.3-.3-.6-.4-.9 0-.1-.1-.2-.2-.3l-.1-.1c-.1 0-.1 0-.2-.1h-2.4c-.2 0-.4.1-.5.2v.2c0 .1 0 .1.1.2.4.9.7 1.7 1.2 2.5.4.8.8 1.4 1.1 1.9.3.5.6.9.9 1.4.3.4.5.7.6.8.1.1.2.2.2.3l.2.2c.1.1.3.3.6.5l.9.6c.3.2.7.4 1.2.5.4.1.9.2 1.3.2h1c.2 0 .4-.1.5-.2 0 0 0-.1.1-.2v-.3c0-.3 0-.5.1-.7 0-.2.1-.4.1-.5.1-.1.1-.2.2-.3l.1-.1h.1c.1 0 .3 0 .5.1s.4.3.5.5c.2.2.4.4.6.7.2.3.4.5.6.6l.2.1c.1.1.3.1.5.2s.4.1.5 0h2.3c.2 0 .4 0 .5-.1.1-.1.2-.2.2-.3v-.3c0-.1-.5.2-.5.1z" fill="#212121"/></svg><svg height="16" viewBox="-298 389 15 16" width="15" x="36" y="34"><path d="M-283.1 397.5h-1.9v2s0 .1-.1.1h-.8s-.1 0-.1-.1v-2h-1.9s-.1 0-.1-.1v-.9s0-.1.1-.1h1.9v-2s0-.1.1-.1h.8s.1 0 .1.1v2h1.9s.1 0 .1.1l-.1 1c.1 0 .1 0 0 0zm-6.1-7.7c-.1 0-.1 0 0 0h-1.3c.5.4 1.4 1.2 1.4 2.8 0 1.6-.9 2.3-1.7 3-.2.3-.5.5-.5 1 0 .4.3.7.5.9l.7.6c.9.8 1.7 1.5 1.7 2.9 0 2-1.8 3.9-5.3 3.9-3 0-4.3-1.5-4.3-3 0-.4.1-1.7 1.5-2.5 1.2-.8 2.9-.9 3.8-1h.1c-.3-.4-.6-.8-.6-1.4 0-.3.1-.5.2-.7v-.1h-.6c-2.2 0-3.3-1.7-3.3-3.3 0-1 .5-2.1 1.3-2.8 1-.9 2.2-1.2 3.8-1.2h3.7s.1 0 .1.1v.1l-1.2.7zm-5.3 9.6c-1.1.4-1.7 1.2-1.7 2.1 0 1.5 1.4 2.5 3.5 2.5 1.8 0 3-.9 3-2.3 0-1.1-.7-1.7-2.2-2.8h-.5c0 .2-1.2.2-2.1.5zm1.1-9.6c-.5 0-1.1.3-1.4.7-.3.4-.4.9-.4 1.5 0 1.3.7 3.7 2.5 3.7.5 0 1-.2 1.4-.6.5-.5.5-1.3.5-1.5-.1-1.5-1-3.8-2.6-3.8z" fill="#212121"/></svg><svg height="15" viewBox="-302 389 7 15" width="7" x="53" y="34"><path d="M-295.3 389h-1.7c-1.9 0-3.1 1.4-3.1 3.7v1.7h-1.7c-.1 0-.3.1-.3.3v2.5c0 .2.1.3.3.3h1.7v6.2c0 .2.1.3.3.3h2.2c.1 0 .3-.1.3-.3v-6.2h2c.1 0 .3-.1.3-.3v-2.5c0-.1 0-.2-.1-.2 0-.1-.1-.1-.2-.1h-2V393c0-.7.1-1 .9-1h1.1c.1 0 .3-.1.3-.3v-2.3c0-.3-.1-.4-.3-.4z" fill="#212121"/></svg><svg height="11" viewBox="-298 391 14 11" width="14" x="62" y="34"><path d="M-285.4 393.7v.4c0 3.7-2.9 7.9-8.2 7.9-1.6 0-3.1-.5-4.4-1.2h.7c1.3 0 2.6-.4 3.6-1.2-1.3 0-2.3-.8-2.7-1.9.2 0 .4.1.5.1.3 0 .5 0 .8-.1-1.3-.3-2.3-1.4-2.3-2.7.4.2.8.3 1.3.3-.8-.5-1.3-1.3-1.3-2.3 0-.5.1-1 .4-1.4 1.4 1.7 3.5 2.8 5.9 2.9 0-.2-.1-.4-.1-.6 0-1.5 1.3-2.8 2.9-2.8.8 0 1.6.3 2.1.9.7-.1 1.3-.4 1.8-.7-.2.7-.7 1.2-1.3 1.5.6-.1 1.1-.2 1.7-.4-.4.5-.9.9-1.4 1.3z" fill="#212121"/></svg><svg height="13" viewBox="-299 390 13 13" width="13" x="2" y="54"><path d="M-286.2 403h-2.2c-.1 0-.2-.1-.2-.2v-4.9c0-.4-.1-.8-.4-1.1-.3-.3-.7-.5-1.1-.5-.8 0-1.5.7-1.5 1.6v4.9c0 .1-.1.2-.2.2h-2.5c-.1 0-.2-.1-.2-.2v-8.5c0-.1.1-.2.2-.2h2.2c.1 0 .2.1.2.2v.9l.2-.2c.5-.7 1.3-1.1 2.2-1.1h.5c1.7 0 2.9 1.3 2.9 3v5.9c.1.1 0 .2-.1.2zm-11.2-9.8c-.8 0-1.6-.7-1.6-1.6 0-.9.7-1.6 1.6-1.6.9 0 1.6.7 1.6 1.6-.1.9-.8 1.6-1.6 1.6zm-1 .9h1.8c.2 0 .4.2.4.5v8c0 .2-.2.4-.4.4h-1.8c-.2 0-.4-.2-.4-.5v-8c0-.2.2-.4.4-.4z" fill="#e1bb9a"/></svg><svg height="13" viewBox="-299 390 13 13" width="13" x="17" y="54"><path d="M-287.5 390h-9.9c-.9 0-1.6.8-1.6 1.6v9.9c0 .8.7 1.5 1.6 1.5h9.9c.9 0 1.5-.6 1.5-1.5v-9.9c0-.8-.7-1.6-1.5-1.6zm-.3 1.9c.2 0 .4.2.4.4v1.4c0 .2-.2.4-.4.4h-1.4c-.2 0-.4-.2-.4-.4v-1.4c0-.2.2-.4.4-.4h1.4zm-4.7 2.2c1.4 0 2.5 1.1 2.5 2.5s-1.1 2.5-2.5 2.5-2.5-1.1-2.5-2.5 1.2-2.5 2.5-2.5zm5.1 7.1c0 .2-.2.4-.4.4h-9.3c-.2 0-.5-.2-.5-.4v-5.6h1.3c-.1.5-.1.7-.1 1 0 2.2 1.8 3.9 3.9 3.9s3.9-1.8 3.9-3.9c0-.4 0-.6-.1-1h1.3v5.6z" fill="#212121"/></svg><svg height="13" viewBox="-299 390 13 13" width="13" x="32" y="54"><path d="M-287.5 390h-9.9c-.9 0-1.6.8-1.6 1.6v9.9c0 .8.7 1.5 1.6 1.5h9.9c.9 0 1.5-.6 1.5-1.5v-9.9c0-.8-.7-1.6-1.5-1.6zm-.3 1.9c.2 0 .4.2.4.4v1.4c0 .2-.2.4-.4.4h-1.4c-.2 0-.4-.2-.4-.4v-1.4c0-.2.2-.4.4-.4h1.4zm-4.7 2.2c1.4 0 2.5 1.1 2.5 2.5s-1.1 2.5-2.5 2.5-2.5-1.1-2.5-2.5 1.2-2.5 2.5-2.5zm5.1 7.1c0 .2-.2.4-.4.4h-9.3c-.2 0-.5-.2-.5-.4v-5.6h1.3c-.1.5-.1.7-.1 1 0 2.2 1.8 3.9 3.9 3.9s3.9-1.8 3.9-3.9c0-.4 0-.6-.1-1h1.3v5.6z" fill="#dfb999"/></svg><svg height="13" viewBox="-299 390 13 13" width="13" x="47" y="54"><path d="M-286.2 403h-2.2c-.1 0-.2-.1-.2-.2v-4.9c0-.4-.1-.8-.4-1.1-.3-.3-.7-.5-1.1-.5-.8 0-1.5.7-1.5 1.6v4.9c0 .1-.1.2-.2.2h-2.5c-.1 0-.2-.1-.2-.2v-8.5c0-.1.1-.2.2-.2h2.2c.1 0 .2.1.2.2v.9l.2-.2c.5-.7 1.3-1.1 2.2-1.1h.5c1.7 0 2.9 1.3 2.9 3v5.9c.1.1 0 .2-.1.2zm-11.2-9.8c-.8 0-1.6-.7-1.6-1.6 0-.9.7-1.6 1.6-1.6.9 0 1.6.7 1.6 1.6-.1.9-.8 1.6-1.6 1.6zm-1 .9h1.8c.2 0 .4.2.4.5v8c0 .2-.2.4-.4.4h-1.8c-.2 0-.4-.2-.4-.5v-8c0-.2.2-.4.4-.4z" fill="#212121"/></svg><svg height="12" viewBox="-299 391 13 12" width="13" x="62" y="54"><path d="M-287.9 391c-1.8-.1-3 1-3.7 3.2.3-.1.6-.2 1-.2.7 0 .9.4.9 1.2 0 .5-.3 1.2-.9 2.1-.5.9-1 1.4-1.2 1.4-.4 0-.7-.7-1-2.1-.1-.4-.3-1.5-.5-3.2-.2-1.6-.9-2.3-1.9-2.2-.4 0-1.1.5-1.9 1.2-.6.6-1.3 1.2-1.9 1.8l.6.8c.6-.4.9-.7 1-.7.4 0 .9.7 1.3 2.2.3 1.4.7 2.7 1.1 4.1.5 1.5 1.2 2.2 1.9 2.2 1.2 0 2.7-1.2 4.5-3.7 1.7-2.3 2.6-4.2 2.6-5.5.1-1.6-.6-2.6-1.9-2.6z" fill="#e1bb9a"/></svg><svg height="12" viewBox="-299 391 13 12" width="13" x="77" y="54"><path d="M-287.9 391c-1.8-.1-3 1-3.7 3.2.3-.1.6-.2 1-.2.7 0 .9.4.9 1.2 0 .5-.3 1.2-.9 2.1-.5.9-1 1.4-1.2 1.4-.4 0-.7-.7-1-2.1-.1-.4-.3-1.5-.5-3.2-.2-1.6-.9-2.3-1.9-2.2-.4 0-1.1.5-1.9 1.2-.6.6-1.3 1.2-1.9 1.8l.6.8c.6-.4.9-.7 1-.7.4 0 .9.7 1.3 2.2.3 1.4.7 2.7 1.1 4.1.5 1.5 1.2 2.2 1.9 2.2 1.2 0 2.7-1.2 4.5-3.7 1.7-2.3 2.6-4.2 2.6-5.5.1-1.6-.6-2.6-1.9-2.6z" fill="#212121"/></svg></svg>