<svg xmlns="http://www.w3.org/2000/svg" xmlns:xlink="http://www.w3.org/1999/xlink" preserveAspectRatio="xMidYMid" width="306" height="23" viewBox="0 0 306 23">
  <defs>
    <style>
      .cls-1 {
        fill: #c99376;
        fill-rule: evenodd;
      }
    </style>
  </defs>
  <path d="M305.337,22.261 C304.894,22.689 304.368,22.904 303.760,22.904 C303.129,22.904 302.598,22.692 302.166,22.269 C301.735,21.845 301.519,21.333 301.519,20.732 C301.519,20.121 301.735,19.604 302.166,19.180 C302.598,18.756 303.129,18.544 303.760,18.544 C304.380,18.544 304.908,18.759 305.346,19.188 C305.782,19.617 306.001,20.132 306.001,20.732 C306.001,21.323 305.779,21.832 305.337,22.261 ZM284.740,22.437 L274.432,22.437 L274.432,21.617 L277.735,21.617 L277.735,1.314 L274.432,1.314 L274.432,0.461 L284.740,0.461 C288.248,0.461 291.045,1.470 293.131,3.486 C295.217,5.502 296.260,8.162 296.260,11.465 C296.260,14.769 295.220,17.424 293.139,19.429 C291.058,21.435 288.259,22.437 284.740,22.437 ZM291.529,9.921 C291.529,7.937 291.321,6.331 290.907,5.103 C290.491,3.875 289.842,2.955 288.956,2.343 C288.425,1.969 287.744,1.703 286.914,1.547 C286.084,1.392 284.779,1.314 282.997,1.314 L282.184,1.314 L282.184,21.617 L282.997,21.617 C284.779,21.617 286.084,21.539 286.914,21.384 C287.744,21.229 288.425,20.963 288.956,20.587 C289.830,19.966 290.477,19.035 290.898,17.796 C291.319,16.558 291.529,14.952 291.529,12.978 L291.529,9.921 ZM266.219,22.808 L264.957,22.808 L251.047,1.845 L250.748,1.845 L250.748,21.617 L254.051,21.617 L254.051,22.437 L246.499,22.437 L246.499,21.617 L249.802,21.617 L249.802,1.314 L246.499,1.314 L246.499,0.461 L255.197,0.461 L264.924,15.117 L265.256,15.117 L265.256,1.314 L261.969,1.314 L261.969,0.461 L269.505,0.461 L269.505,1.314 L266.219,1.314 L266.219,22.808 ZM230.317,21.617 L233.637,21.617 L233.637,1.314 L230.317,1.314 L230.317,0.461 L241.323,0.461 L241.323,1.314 L238.019,1.314 L238.019,21.617 L241.323,21.617 L241.323,22.437 L230.317,22.437 L230.317,21.617 ZM213.953,21.617 L217.290,21.617 L217.290,1.619 L217.057,1.619 L210.417,22.437 L209.272,22.437 L202.732,1.652 L202.400,1.652 L202.400,21.617 L205.703,21.617 L205.703,22.437 L198.150,22.437 L198.150,21.617 L201.454,21.617 L201.454,1.314 L198.150,1.314 L198.150,0.461 L206.848,0.461 L211.380,15.117 L211.745,15.117 L216.410,0.461 L225.008,0.461 L225.008,1.314 L221.672,1.314 L221.672,21.617 L225.008,21.617 L225.008,22.437 L213.953,22.437 L213.953,21.617 ZM178.297,2.577 C177.427,1.735 176.003,1.314 174.022,1.314 L169.805,1.314 L169.805,10.645 L170.220,10.645 C171.891,10.645 173.053,10.358 173.706,9.785 C174.359,9.211 174.769,8.146 174.935,6.591 L175.715,6.591 L175.715,15.423 L174.935,15.423 C174.779,13.836 174.373,12.758 173.715,12.189 C173.056,11.621 171.831,11.337 170.038,11.337 L169.805,11.337 L169.805,21.617 L173.374,21.617 L173.374,22.437 L162.087,22.437 L162.087,21.617 L165.390,21.617 L165.390,1.314 L162.087,1.314 L162.087,0.461 L180.612,0.461 L180.861,7.057 L180.080,7.057 C179.759,4.913 179.165,3.419 178.297,2.577 ZM145.673,22.968 C142.685,22.968 140.206,21.880 138.236,19.702 C136.266,17.526 135.281,14.791 135.281,11.498 C135.281,8.195 136.269,5.451 138.245,3.269 C140.220,1.087 142.695,-0.006 145.673,-0.006 C148.650,-0.006 151.123,1.084 153.093,3.260 C155.062,5.438 156.047,8.183 156.047,11.498 C156.047,14.801 155.062,17.539 153.093,19.711 C151.123,21.883 148.650,22.968 145.673,22.968 ZM151.184,8.763 C151.184,5.931 150.752,3.902 149.889,2.674 C149.026,1.445 147.609,0.831 145.640,0.831 C143.681,0.831 142.267,1.445 141.399,2.674 C140.530,3.902 140.095,5.931 140.095,8.763 L140.095,14.200 C140.095,17.032 140.530,19.065 141.399,20.298 C142.267,21.532 143.681,22.148 145.640,22.148 C147.609,22.148 149.026,21.532 149.889,20.298 C150.752,19.065 151.184,17.032 151.184,14.200 L151.184,8.763 ZM108.115,21.617 C110.295,21.617 111.894,21.140 112.912,20.185 C113.930,19.231 114.622,17.563 114.987,15.182 L115.767,15.182 L115.552,22.437 L96.346,22.437 L96.346,21.617 L99.649,21.617 L99.649,1.314 L96.346,1.314 L96.346,0.461 L114.871,0.461 L115.120,6.398 L114.340,6.398 C113.797,4.414 113.114,3.070 112.290,2.368 C111.465,1.666 110.129,1.314 108.281,1.314 L104.032,1.314 L104.032,10.645 L104.447,10.645 C106.128,10.645 107.302,10.355 107.966,9.776 C108.630,9.197 109.039,8.135 109.194,6.591 L109.991,6.591 L109.991,15.423 L109.194,15.423 C109.039,13.836 108.627,12.758 107.957,12.189 C107.288,11.621 106.057,11.337 104.264,11.337 L104.032,11.337 L104.032,21.617 L108.115,21.617 ZM87.934,2.529 C87.092,1.634 85.798,1.185 84.049,1.185 C83.751,1.185 83.526,1.188 83.377,1.194 C83.228,1.199 83.092,1.207 82.970,1.217 L82.954,21.617 L86.622,21.617 L86.622,22.437 L74.903,22.437 L74.903,21.617 L78.538,21.617 L78.538,1.217 L77.476,1.217 C75.683,1.217 74.383,1.650 73.575,2.513 C72.767,3.376 72.131,5.030 71.666,7.475 L70.654,7.475 L70.952,0.493 L90.573,0.493 L90.872,7.475 L89.859,7.475 C89.416,5.074 88.774,3.424 87.934,2.529 ZM56.597,21.617 L60.066,21.617 L57.991,15.809 L50.538,15.809 L48.496,21.617 L51.999,21.617 L51.999,22.437 L44.761,22.437 L44.761,21.617 L47.484,21.617 L55.302,-0.006 L56.431,-0.006 L64.448,21.617 L67.204,21.617 L67.204,22.437 L56.597,22.437 L56.597,21.617 ZM54.455,6.028 L54.074,6.028 L50.887,14.956 L57.676,14.956 L54.455,6.028 ZM38.407,2.529 C37.566,1.634 36.271,1.185 34.523,1.185 C34.224,1.185 34.000,1.188 33.851,1.194 C33.701,1.199 33.566,1.207 33.444,1.217 L33.427,21.617 L37.096,21.617 L37.096,22.437 L25.377,22.437 L25.377,21.617 L29.012,21.617 L29.012,1.217 L27.950,1.217 C26.157,1.217 24.856,1.650 24.049,2.513 C23.241,3.376 22.605,5.030 22.140,7.475 L21.127,7.475 L21.426,0.493 L41.047,0.493 L41.345,7.475 L40.333,7.475 C39.890,5.074 39.248,3.424 38.407,2.529 ZM5.776,7.942 L8.200,8.602 C10.225,9.138 11.699,9.962 12.623,11.072 C13.547,12.182 14.010,13.675 14.010,15.552 C14.010,17.762 13.370,19.556 12.092,20.934 C10.814,22.312 9.140,23.001 7.071,23.001 C6.141,23.001 5.272,22.866 4.465,22.598 C3.657,22.331 2.827,21.902 1.975,21.311 L0.680,22.695 L-0.000,22.695 L-0.000,16.147 L0.962,16.147 C1.427,18.089 2.163,19.556 3.170,20.548 C4.177,21.539 5.433,22.035 6.938,22.035 C8.487,22.035 9.746,21.601 10.715,20.732 C11.683,19.863 12.167,18.732 12.167,17.338 C12.167,16.330 11.849,15.512 11.213,14.885 C10.576,14.257 9.550,13.756 8.133,13.380 L5.992,12.785 C3.934,12.227 2.437,11.423 1.502,10.371 C0.566,9.321 0.099,7.916 0.099,6.156 C0.099,4.290 0.658,2.797 1.776,1.676 C2.893,0.556 4.387,-0.006 6.258,-0.006 C7.242,-0.006 8.111,0.121 8.864,0.373 C9.616,0.625 10.335,1.030 11.022,1.587 L12.349,0.236 L12.848,0.236 L12.848,6.430 L12.067,6.430 C11.603,4.596 10.878,3.210 9.893,2.271 C8.908,1.333 7.696,0.863 6.258,0.863 C4.952,0.863 3.884,1.215 3.054,1.917 C2.224,2.620 1.809,3.518 1.809,4.612 C1.809,5.460 2.080,6.124 2.622,6.607 C3.164,7.089 4.216,7.535 5.776,7.942 Z" class="cls-1"/>
</svg>
